<?xml version="1.0" encoding="iso-8859-1"?>
<!-- Uploaded to: SVG Repo, www.svgrepo.com, Generator: SVG Repo Mixer Tools -->
<!DOCTYPE svg PUBLIC "-//W3C//DTD SVG 1.1//EN" "http://www.w3.org/Graphics/SVG/1.1/DTD/svg11.dtd">
<svg fill="#000000" version="1.1" id="Capa_1" xmlns="http://www.w3.org/2000/svg" xmlns:xlink="http://www.w3.org/1999/xlink" 
	 width="800px" height="800px" viewBox="0 0 108.766 108.767"
	 xml:space="preserve">
<g>
	<path d="M86.281,48.62c7.132-2.739,8.553-5.12,6.602-12.626c-2.039-7.839-7.946-11.731-15.854-10.523
		c-1.075,0.168-11.133,5.678-12.177,5.922c0.387-0.357,9.764-6.036,10.141-6.42c4.479-4.591,5.331-9.503,2.689-15.453
		C75.213,3.962,69.43-0.685,64.198,0.657c-9.95,2.548-5.824,2.717-15.811-0.238c-6.261-1.85-11.76,2.601-15.372,9.955
		c-2.197,4.479,1.755,10.087,4.639,14.116c6.059,5.394-4.835-2.229-5.4-2.376c-6.209-1.591-10.897,0.126-14.735,5.379
		c-4.93,6.752-0.95,20.224-0.266,20.293c9.195,0.967,8.494-3.22,4.552,6.595c-2.435,6.061,10.542,11.943,18.721,11.406
		c6.033-0.394,9.313,0.91,11.319-5.872c0.365-1.232,0.652-0.325,0.924-1.383c1.826,7.803,3.477,9.425,5.585,17.306
		c3.049,11.417,8.25,21.816,15.816,30.95c0.979,1.181,2.286,2.82,3.936,1.472c1.609-1.324-0.027-2.601-0.893-3.631
		c-7.957-9.473-12.71-20.52-15.91-32.322c-2.155-7.978,0.678-13.675,3.922-10.298c11.092,11.567,29.958,4.706,19.161-11.065
		C83.564,49.75,85.039,49.098,86.281,48.62z"/>
</g>
</svg>