<svg width="151" height="143" viewBox="0 0 151 143" fill="none" xmlns="http://www.w3.org/2000/svg">
<path d="M0.166195 100.113C0.176829 100.168 0.193598 100.222 0.216187 100.273C0.226186 100.303 0.236185 100.343 0.246183 100.373L11.6545 120.13L11.6845 120.16C11.7045 120.19 11.7245 120.22 11.7545 120.26C11.7931 120.302 11.8368 120.339 11.8845 120.37C11.9145 120.39 11.9345 120.42 11.9645 120.44C11.9762 120.448 11.9904 120.452 12.0045 120.45C12.1176 120.514 12.2447 120.548 12.3744 120.55H57.5078L68.6761 139.887L68.7061 139.917C68.7261 139.947 68.7461 139.977 68.7761 140.017C68.8147 140.059 68.8584 140.096 68.9061 140.127C68.9361 140.147 68.9561 140.177 68.9861 140.197C68.9978 140.205 69.012 140.209 69.0261 140.207C69.1393 140.271 69.2664 140.305 69.396 140.307H137.836C137.969 140.305 138.099 140.271 138.216 140.207L138.306 140.147C138.391 140.091 138.465 140.02 138.526 139.937C138.536 139.917 138.566 139.907 138.576 139.887L149.984 120.13C149.994 120.11 149.994 120.1 150.004 120.08C150.022 120.049 150.035 120.015 150.044 119.98C150.054 119.94 150.064 119.91 150.074 119.87C150.082 119.834 150.086 119.797 150.084 119.76C150.084 119.74 150.094 119.73 150.094 119.71C150.094 119.69 150.084 119.68 150.084 119.66C150.084 119.62 150.074 119.59 150.074 119.55C150.074 119.51 150.054 119.48 150.044 119.44C150.033 119.406 150.019 119.373 150.004 119.34C149.994 119.32 149.994 119.31 149.984 119.29L127.418 80.2062L138.576 60.869C138.586 60.849 138.586 60.839 138.596 60.819C138.613 60.7875 138.627 60.7539 138.636 60.719C138.646 60.679 138.656 60.649 138.666 60.609C138.674 60.573 138.677 60.536 138.676 60.499C138.676 60.479 138.686 60.469 138.686 60.449C138.686 60.4291 138.676 60.4191 138.676 60.3991C138.676 60.3591 138.666 60.3291 138.666 60.2891C138.666 60.2491 138.646 60.2191 138.636 60.1791C138.624 60.1451 138.611 60.1117 138.596 60.0791C138.586 60.0591 138.586 60.0491 138.576 60.0291L104.371 0.747808C104.351 0.717812 104.321 0.697815 104.301 0.66782C104.267 0.622445 104.23 0.579048 104.191 0.537839C104.15 0.504506 104.107 0.474419 104.061 0.447852C104.017 0.418617 103.97 0.395094 103.921 0.377862C103.862 0.358733 103.802 0.345338 103.741 0.337868C103.711 0.337868 103.681 0.317871 103.641 0.317871H80.8244C80.8044 0.317871 80.7944 0.32787 80.7744 0.32787C80.7344 0.32787 80.7044 0.337868 80.6644 0.337868L80.5444 0.367864C80.5144 0.377862 80.4744 0.397859 80.4444 0.407858C80.4144 0.417856 80.4144 0.417856 80.3944 0.427855C80.383 0.440205 80.3695 0.450371 80.3544 0.457851C80.3221 0.478 80.2919 0.501456 80.2644 0.52784C80.2353 0.551924 80.2085 0.578706 80.1844 0.607829C80.1645 0.637824 80.1345 0.66782 80.1145 0.697815C80.1021 0.709209 80.0919 0.722763 80.0845 0.737809L57.5178 39.8321H35.2011C35.1811 39.8321 35.1711 39.8421 35.1511 39.8421C35.1111 39.8421 35.0811 39.8521 35.0411 39.8521C35.0011 39.8521 34.9611 39.8721 34.9311 39.8821C34.8971 39.8937 34.8637 39.907 34.8311 39.9221C34.8111 39.9321 34.8011 39.9321 34.7811 39.9421C34.7611 39.9521 34.7611 39.9621 34.7411 39.9721C34.7088 39.9922 34.6786 40.0157 34.6511 40.042C34.622 40.0661 34.5952 40.0929 34.5711 40.122C34.5511 40.152 34.5212 40.182 34.5012 40.212C34.4888 40.2234 34.4786 40.237 34.4712 40.252L0.256182 99.5333C0.241642 99.5651 0.231549 99.5988 0.226186 99.6333C0.204997 99.6851 0.188272 99.7386 0.176193 99.7933C0.160322 99.845 0.153556 99.8992 0.156196 99.9533C0.154541 100.007 0.157888 100.06 0.166195 100.113ZM103.151 2.01762L136.396 59.5992H115.539L82.2841 2.01762H103.151ZM114.559 99.1134H93.6925L115.529 61.2789H136.396L114.559 99.1134ZM80.8244 2.8575L114.069 60.439L92.2327 98.2735L81.8042 80.1962L92.9726 60.859C92.9826 60.839 92.9826 60.829 92.9926 60.809C93.0102 60.7775 93.0236 60.7439 93.0326 60.709C93.0426 60.669 93.0526 60.639 93.0626 60.599C93.0708 60.563 93.0742 60.526 93.0726 60.489C93.0726 60.469 93.0826 60.459 93.0826 60.439C93.0826 60.4191 93.0726 60.4091 93.0726 60.3891C93.0726 60.3491 93.0626 60.3191 93.0626 60.2791C93.0626 60.2391 93.0426 60.2091 93.0326 60.1691C93.021 60.1351 93.0076 60.1017 92.9926 60.0691C92.9826 60.0491 92.9826 60.0391 92.9726 60.0191L81.5543 40.262C81.5343 40.232 81.5043 40.212 81.4843 40.182C81.4501 40.1366 81.4134 40.0933 81.3743 40.052C81.3334 40.0187 81.2899 39.9886 81.2443 39.9621C81.1997 39.9348 81.1529 39.9113 81.1043 39.8921C81.0498 39.8724 80.9923 39.8623 80.9343 39.8621C80.9043 39.8621 80.8644 39.8421 80.8344 39.8421H59.4775L80.8244 2.8575ZM58.0177 41.5318H80.3444L90.7829 59.5992H47.0993L36.6608 41.5318H58.0177ZM35.2011 42.3717L45.6295 60.439L12.3844 118.021L1.95593 99.9533L35.2011 42.3717ZM13.8542 118.86L47.0993 61.2789H90.7829L80.3444 79.3563H58.0177C57.9977 79.3563 57.9877 79.3663 57.9677 79.3663C57.9277 79.3663 57.8977 79.3763 57.8577 79.3763L57.7377 79.4063C57.7077 79.4163 57.6678 79.4363 57.6378 79.4463C57.6078 79.4563 57.6078 79.4563 57.5878 79.4663C57.5764 79.4786 57.5628 79.4888 57.5478 79.4963C57.5154 79.5164 57.4853 79.5399 57.4578 79.5662C57.4287 79.5903 57.4019 79.6171 57.3778 79.6462C57.3578 79.6762 57.3278 79.7062 57.3078 79.7362C57.2978 79.7462 57.2778 79.7562 57.2778 79.7762L45.8695 99.5333C45.8549 99.5651 45.8449 99.5988 45.8395 99.6333C45.8183 99.6851 45.8016 99.7386 45.7895 99.7933C45.7809 99.8461 45.7775 99.8997 45.7795 99.9533C45.7778 100.007 45.7812 100.06 45.7895 100.113C45.8001 100.168 45.8169 100.222 45.8395 100.273C45.8495 100.303 45.8595 100.343 45.8695 100.373L56.5479 118.86H13.8542ZM137.376 138.618H70.8858L81.3143 120.55H147.805L137.376 138.618ZM69.426 137.778L47.5892 99.9533L58.0277 81.8759L79.8645 119.7L69.426 137.778ZM147.805 118.86H81.3143L59.4775 81.036H80.3444L91.5128 100.373L91.5428 100.403C91.5627 100.439 91.5861 100.472 91.6128 100.503C91.6514 100.545 91.695 100.582 91.7428 100.613C91.7728 100.633 91.7927 100.663 91.8227 100.683C91.8345 100.691 91.8486 100.695 91.8627 100.693C91.9759 100.756 92.103 100.791 92.2327 100.793H115.049C115.182 100.791 115.312 100.757 115.429 100.693L115.519 100.633C115.604 100.576 115.679 100.505 115.739 100.423C115.749 100.403 115.779 100.393 115.789 100.373L126.468 81.8759L147.805 118.86Z" fill="white"/>
</svg>
