<svg width="141" height="142" viewBox="0 0 141 142" fill="none" xmlns="http://www.w3.org/2000/svg">
<g clip-path="url(#clip0_5_77)">
<path d="M0.535684 108.47C0.547823 108.522 0.564539 108.572 0.585657 108.62C0.591099 108.652 0.601207 108.682 0.615647 108.71L7.8935 121.328L7.92349 121.358C7.94363 121.39 7.96709 121.42 7.99348 121.448C8.03347 121.488 8.07345 121.518 8.11344 121.558C8.14343 121.578 8.15343 121.608 8.18342 121.618C8.19515 121.626 8.2093 121.629 8.22339 121.628C8.33194 121.683 8.45144 121.714 8.57329 121.718H132.407C132.529 121.714 132.648 121.683 132.757 121.628C132.787 121.608 132.807 121.588 132.837 121.568C132.917 121.517 132.986 121.449 133.037 121.368C133.047 121.348 133.067 121.338 133.087 121.318L140.374 108.7C140.384 108.69 140.384 108.67 140.394 108.66C140.414 108.63 140.427 108.596 140.434 108.56C140.444 108.53 140.454 108.49 140.464 108.46C140.473 108.428 140.476 108.394 140.474 108.36C140.474 108.34 140.484 108.33 140.484 108.31C140.484 108.29 140.474 108.28 140.474 108.26C140.474 108.24 140.464 108.19 140.464 108.16C140.464 108.13 140.444 108.091 140.434 108.061C140.424 108.026 140.41 107.993 140.394 107.961C140.384 107.951 140.384 107.931 140.374 107.921L78.4627 0.671904C78.4452 0.646516 78.4251 0.623056 78.4027 0.601918C78.3714 0.557324 78.3345 0.516994 78.2928 0.481942C78.2144 0.424215 78.1307 0.374003 78.0428 0.331972C77.9908 0.31626 77.9371 0.306205 77.8829 0.301978C77.8529 0.301978 77.8229 0.281982 77.7829 0.281982H63.2172C63.1972 0.281982 63.1872 0.29198 63.1672 0.29198C63.1472 0.29198 63.0972 0.301978 63.0672 0.301978L62.9573 0.331972C62.9229 0.342677 62.8895 0.356048 62.8573 0.371964C62.8456 0.379916 62.8314 0.383458 62.8173 0.381962C62.8059 0.394312 62.7924 0.404476 62.7773 0.411956C62.7489 0.4295 62.7222 0.449578 62.6974 0.471944C62.6682 0.496027 62.6414 0.522807 62.6174 0.551928C62.5974 0.581922 62.5774 0.601918 62.5574 0.631912C62.545 0.643305 62.5349 0.656858 62.5274 0.671904L0.60564 107.931C0.5912 107.959 0.581092 107.989 0.57565 108.021C0.554517 108.069 0.5378 108.119 0.525677 108.171C0.517371 108.22 0.514012 108.27 0.51567 108.32C0.525667 108.37 0.525687 108.42 0.535684 108.47ZM77.333 1.85167L138.345 107.531H31.7965L38.1746 96.4928H117.861C117.985 96.4918 118.106 96.4573 118.211 96.3929C118.221 96.3829 118.241 96.3928 118.251 96.3828C118.276 96.3654 118.3 96.3453 118.321 96.3229C118.363 96.289 118.403 96.2522 118.441 96.2129C118.471 96.1753 118.498 96.1351 118.521 96.0929C118.551 96.0549 118.571 96.0103 118.581 95.9629C118.601 95.9121 118.612 95.8577 118.611 95.803C118.611 95.773 118.631 95.743 118.631 95.703C118.631 95.683 118.621 95.673 118.621 95.653C118.616 95.6022 118.606 95.5519 118.591 95.503C118.579 95.4516 118.562 95.4014 118.541 95.3531C118.531 95.3431 118.531 95.3231 118.521 95.3131L64.5668 1.85167H77.333ZM131.967 120.148H9.94288L63.2172 27.8665L69.5953 38.9043L29.747 107.921C29.7391 107.932 29.7356 107.946 29.7371 107.961C29.7159 108.009 29.6992 108.059 29.6871 108.111C29.6723 108.159 29.6623 108.21 29.6571 108.26C29.6571 108.28 29.6471 108.29 29.6471 108.31C29.6471 108.33 29.6671 108.37 29.6671 108.41C29.6722 108.465 29.6823 108.518 29.6971 108.57C29.7171 108.62 29.7371 108.66 29.7571 108.7C29.7814 108.742 29.8081 108.782 29.837 108.82C29.877 108.86 29.917 108.89 29.957 108.93C29.987 108.95 29.997 108.98 30.027 108.99C30.037 109 30.057 108.99 30.067 109C30.1748 109.059 30.2943 109.093 30.4169 109.1H138.325L131.967 120.148ZM101.926 94.9231H39.0743L70.5051 40.484L101.926 94.9231ZM63.2172 2.64151L116.492 94.9231H103.745L63.907 25.9069C63.8946 25.8955 63.8845 25.8819 63.877 25.8669C63.847 25.8269 63.807 25.7869 63.777 25.7469C63.7417 25.7083 63.7014 25.6747 63.6571 25.6469C63.6457 25.6346 63.6321 25.6244 63.6171 25.6169C63.5888 25.6025 63.5584 25.5924 63.5271 25.5869C63.4787 25.5658 63.4285 25.5491 63.3772 25.537C63.2776 25.5236 63.1768 25.5236 63.0773 25.537C63.0259 25.5491 62.9757 25.5658 62.9273 25.5869C62.896 25.5924 62.8656 25.6025 62.8373 25.6169C62.8259 25.6293 62.8124 25.6395 62.7973 25.6469C62.7573 25.6769 62.7173 25.7169 62.6773 25.7469C62.636 25.7795 62.602 25.8204 62.5774 25.8669C62.5651 25.8783 62.5549 25.8918 62.5474 25.9069L8.59331 119.368L2.21518 108.33L63.2172 2.64151Z" fill="white"/>
</g>
<defs>
<clipPath id="clip0_5_77">
<rect width="139.969" height="141" fill="white" transform="translate(0.515625 0.28125)"/>
</clipPath>
</defs>
</svg>
