<svg width="140" height="143" viewBox="0 0 140 143" fill="none" xmlns="http://www.w3.org/2000/svg">
<g clip-path="url(#clip0_5_86)">
<path d="M122.031 35.3074L101.335 23.3593L82.1283 34.4476V12.2611L61.4219 0.312988L40.7255 12.2611V34.4376L21.5189 23.3493L0.8125 35.3074V59.2137L20.0192 70.3019L0.8125 81.3901V105.296L21.5089 117.244L40.7155 106.156V128.333L61.4119 140.281L82.1082 128.333V106.156L101.315 117.244L122.031 105.296V81.3901L102.825 70.3019L122.031 59.2137V35.3074ZM101.335 25.0791L119.802 35.7374L82.2482 57.4839L82.1283 36.1673L101.335 25.0791ZM80.6385 37.0272L80.7585 58.3538L62.1718 69.1221V24.6491L80.6385 13.9908V37.0272ZM42.2153 13.9908L60.6721 24.6491V69.1221L42.2153 58.4338V13.9908ZM21.5089 25.0791L40.7155 36.1673V57.5539L3.05216 35.7374L21.5089 25.0791ZM2.30229 58.3538V37.0372L39.9757 58.8537L21.5189 69.442L2.30229 58.3538ZM2.30229 104.436V83.1199L20.759 93.7782V115.095L2.30229 104.436ZM3.05216 81.8201L21.8888 70.9518L41.4754 59.7136L59.9321 70.4019L21.5189 92.4784L3.05216 81.8201ZM60.6721 138.131L42.2153 127.473V105.296L60.6721 94.638V138.131ZM42.2153 103.577L41.0955 104.227L22.2588 115.105V93.7882L60.6721 71.7117V92.9183L42.2153 103.577ZM61.4219 23.3593L42.9651 12.701L61.4219 2.04271L79.8787 12.701L61.4219 23.3593ZM80.6285 127.473L62.1718 138.131V94.638L80.6285 105.296V127.473ZM100.585 115.095L81.7483 104.217L80.6285 103.567L62.1718 92.9083V71.7017L100.585 93.7782V115.095ZM120.542 104.436L102.085 115.095V93.5982L120.542 83.1099V104.436ZM119.782 81.8201L101.175 92.3984L62.9117 70.4119L81.4984 59.6436L99.8452 70.3019L100.465 70.6618L100.835 70.8818L100.955 70.9518L119.782 81.8201ZM120.542 58.3538L101.335 69.442L82.9981 58.7837L120.552 37.0372V58.3538H120.542Z" fill="white"/>
</g>
<defs>
<clipPath id="clip0_5_86">
<rect width="139" height="142" fill="white" transform="translate(0.8125 0.3125)"/>
</clipPath>
</defs>
</svg>
