<svg width="140" height="143" viewBox="0 0 140 143" fill="none" xmlns="http://www.w3.org/2000/svg">
<g clip-path="url(#clip0_5_96)">
<path d="M114.655 0.318848L88.4811 15.3155L88.531 54.3569L52.0991 14.8056L25.395 0.328846L0.140625 14.6057V95.7977L25.665 110.045L51.8591 95.5478V88.8892L87.4313 126.181L140.11 95.7677V14.6057L114.655 0.318848ZM90.9305 18.1149L115.595 32.2618V83.7304L90.9705 57.0063L90.9305 18.1149ZM2.59009 17.4151L24.9451 30.3222L86.5615 96.5275L86.5815 121.722L24.5252 56.6564V106.595L2.59009 94.368V17.4151ZM49.4097 86.5397V94.1181L26.8547 106.595V62.715L49.5497 86.5397H49.4097ZM137.78 94.378L89.0109 122.522L88.991 95.5778L26.4748 28.4126L3.8198 15.3355L25.435 3.10823L50.6094 16.7552L118.044 89.949V30.8521L92.1602 16.0154L114.725 3.09823L137.78 16.0154V94.378Z" fill="white"/>
</g>
<defs>
<clipPath id="clip0_5_96">
<rect width="139" height="142" fill="white" transform="translate(0.140625 0.3125)"/>
</clipPath>
</defs>
</svg>
