<svg width="141" height="143" viewBox="0 0 141 143" fill="none" xmlns="http://www.w3.org/2000/svg">
<g clip-path="url(#clip0_5_114)">
<path d="M116.898 101.681C116.908 101.671 116.908 101.651 116.918 101.641C116.938 101.61 116.951 101.576 116.958 101.541C116.968 101.511 116.978 101.471 116.988 101.441C116.997 101.408 117 101.375 116.998 101.341C116.998 101.321 117.008 101.311 117.008 101.291C117.008 101.271 116.998 101.261 116.998 101.241C116.998 101.221 116.988 101.171 116.988 101.141C116.988 101.111 116.968 101.071 116.958 101.041C116.948 101.007 116.934 100.973 116.918 100.941C116.908 100.931 116.908 100.911 116.898 100.901L105.682 81.4761H128.104C128.226 81.4723 128.346 81.4416 128.454 81.3861C128.484 81.3661 128.504 81.3461 128.534 81.3261C128.615 81.2753 128.683 81.207 128.734 81.1262C128.744 81.1062 128.764 81.0962 128.784 81.0762L140.14 61.4112C140.15 61.4012 140.15 61.3812 140.16 61.3712C140.179 61.3406 140.193 61.3067 140.2 61.2713C140.21 61.2413 140.22 61.2013 140.23 61.1713C140.238 61.1386 140.242 61.105 140.24 61.0713C140.24 61.0513 140.25 61.0413 140.25 61.0213C140.25 61.0013 140.24 60.9913 140.24 60.9713C140.24 60.9513 140.23 60.9014 140.23 60.8714C140.23 60.8414 140.21 60.8014 140.2 60.7714C140.189 60.7371 140.176 60.7037 140.16 60.6714C140.15 60.6614 140.15 60.6414 140.14 60.6314L128.784 40.9665C128.767 40.9411 128.747 40.9176 128.724 40.8965C128.693 40.8517 128.656 40.8113 128.614 40.7765C128.572 40.7442 128.529 40.7142 128.484 40.6865C128.444 40.6606 128.4 40.6404 128.354 40.6266C128.303 40.607 128.249 40.5968 128.194 40.5966C128.164 40.5966 128.134 40.5766 128.104 40.5766H105.682L116.898 21.1516C116.908 21.1416 116.908 21.1216 116.918 21.1116C116.938 21.0809 116.951 21.0471 116.958 21.0116C116.968 20.9816 116.978 20.9416 116.988 20.9116C116.997 20.879 117 20.8453 116.998 20.8116C116.998 20.7916 117.008 20.7816 117.008 20.7617C117.008 20.7417 116.998 20.7317 116.998 20.7117C116.998 20.6917 116.988 20.6417 116.988 20.6117C116.988 20.5817 116.968 20.5417 116.958 20.5117C116.948 20.4774 116.934 20.444 116.918 20.4117C116.908 20.4017 116.908 20.3818 116.898 20.3718L105.552 0.706795C105.535 0.681409 105.515 0.65795 105.492 0.636813C105.462 0.594443 105.429 0.554346 105.392 0.516843C105.351 0.484528 105.307 0.454493 105.262 0.426867C105.222 0.400941 105.178 0.380752 105.132 0.366882C105.081 0.347308 105.027 0.337146 104.972 0.33689C104.942 0.33689 104.913 0.316895 104.883 0.316895H82.1806C82.1606 0.316895 82.1506 0.326892 82.1306 0.326892C82.1106 0.326892 82.0606 0.33689 82.0306 0.33689L81.9207 0.366882C81.889 0.375942 81.8586 0.389403 81.8306 0.406872C81.8189 0.414823 81.8048 0.418365 81.7907 0.416869L81.7607 0.446861C81.7323 0.464372 81.7055 0.484451 81.6808 0.506846C81.6516 0.530928 81.6248 0.557706 81.6007 0.586826C81.5807 0.616818 81.5608 0.636813 81.5408 0.666805C81.5285 0.678198 81.5183 0.69175 81.5108 0.706795L70.2948 20.1318L59.0788 0.706795C59.0613 0.681409 59.0411 0.65795 59.0187 0.636813C58.9848 0.59438 58.9481 0.554297 58.9088 0.516843C58.8712 0.486769 58.831 0.460009 58.7888 0.436864C58.7485 0.410938 58.7048 0.39075 58.6589 0.37688C58.6081 0.35642 58.5537 0.346227 58.4989 0.346888C58.4689 0.346888 58.4389 0.326892 58.409 0.326892H35.707C35.687 0.326892 35.677 0.33689 35.657 0.33689C35.637 0.33689 35.587 0.346888 35.557 0.346888L35.4471 0.37688C35.4154 0.385939 35.385 0.3994 35.357 0.416869C35.3453 0.424821 35.3312 0.428363 35.3171 0.426867C35.3057 0.439216 35.2921 0.44938 35.2771 0.456859C35.2487 0.47437 35.2219 0.494448 35.1972 0.516843C35.1681 0.540924 35.1412 0.567704 35.1171 0.596823C35.0971 0.626816 35.0772 0.646811 35.0572 0.676803C35.0449 0.688195 35.0347 0.701748 35.0272 0.716793L23.6812 20.3818C23.6668 20.4101 23.6566 20.4404 23.6512 20.4717C23.6301 20.5201 23.6133 20.5703 23.6012 20.6217C23.5878 20.7212 23.5878 20.8221 23.6012 20.9216C23.6133 20.973 23.6301 21.0232 23.6512 21.0716C23.6566 21.1029 23.6668 21.1332 23.6812 21.1615L34.8972 40.5866H12.4752C12.4552 40.5866 12.4452 40.5966 12.4252 40.5966C12.4052 40.5966 12.3552 40.6066 12.3252 40.6066L12.2153 40.6366C12.1836 40.6456 12.1532 40.6591 12.1252 40.6766C12.1152 40.6865 12.0953 40.6865 12.0853 40.6965L12.0553 40.7265C12.0269 40.744 12.0002 40.7641 11.9754 40.7865C11.9463 40.8106 11.9194 40.8374 11.8953 40.8665C11.8753 40.8965 11.8554 40.9165 11.8354 40.9465C11.8231 40.9579 11.8129 40.9714 11.8054 40.9865L0.44943 60.6514C0.434992 60.6797 0.424853 60.7101 0.419412 60.7414C0.39828 60.7898 0.381503 60.84 0.36938 60.8914C0.35604 60.9909 0.35604 61.0918 0.36938 61.1913C0.381503 61.2427 0.39828 61.2929 0.419412 61.3413C0.424853 61.3726 0.434992 61.4029 0.44943 61.4312L11.8054 81.0962L11.8354 81.1262C11.8556 81.1585 11.879 81.1886 11.9053 81.2162C11.9453 81.2561 11.9853 81.2861 12.0253 81.3261C12.0553 81.3461 12.0654 81.3761 12.0953 81.3861C12.1071 81.3941 12.1212 81.3976 12.1352 81.3961C12.2438 81.4516 12.3633 81.4823 12.4851 81.4861H34.9072L23.7012 100.911C23.6868 100.939 23.6767 100.97 23.6712 101.001C23.6501 101.049 23.6333 101.1 23.6212 101.151C23.6078 101.251 23.6078 101.351 23.6212 101.451C23.6333 101.502 23.6501 101.553 23.6712 101.601C23.6767 101.632 23.6868 101.663 23.7012 101.691L35.0472 121.356L35.0772 121.386C35.0974 121.418 35.1208 121.448 35.1471 121.476C35.1871 121.516 35.2271 121.546 35.2671 121.586C35.2971 121.606 35.3072 121.636 35.3371 121.646C35.3489 121.654 35.363 121.657 35.377 121.656C35.4856 121.711 35.6051 121.742 35.7269 121.746H58.429C58.5508 121.742 58.6703 121.711 58.7788 121.656C58.8088 121.636 58.8288 121.616 58.8587 121.596C58.9395 121.545 59.008 121.477 59.0587 121.396C59.0687 121.376 59.0887 121.366 59.1087 121.346L70.3248 101.921L81.5408 121.346L81.5708 121.376C81.591 121.408 81.6144 121.438 81.6407 121.466C81.6807 121.506 81.7207 121.536 81.7607 121.576C81.7907 121.596 81.8006 121.626 81.8306 121.636C81.8423 121.644 81.8566 121.647 81.8706 121.646C81.9792 121.701 82.0987 121.732 82.2205 121.736H104.923C105.044 121.732 105.164 121.701 105.272 121.646C105.302 121.626 105.322 121.606 105.352 121.586C105.433 121.535 105.502 121.467 105.552 121.386C105.562 121.366 105.582 121.356 105.602 121.336L116.898 101.681ZM104.413 120.166H83.5201L93.9663 102.071H114.859L104.413 120.166ZM57.9291 120.166H37.0365L59.3786 81.4761H80.2712L57.9291 120.166ZM13.7947 79.8965L24.241 61.8011H68.9153L58.4689 79.8965H13.7947ZM12.4352 42.926L22.8815 61.0213L12.4352 79.1167L1.9888 61.0213L12.4352 42.926ZM25.2306 20.7517L35.677 2.65629L58.0191 41.3464L47.5728 59.4417L25.2306 20.7517ZM82.1706 2.66629L92.6169 20.7617L70.2848 59.4517L59.8384 41.3564L82.1706 2.66629ZM104.413 1.8765L114.859 19.9719H93.9663L83.5201 1.8765H104.413ZM127.665 42.1462L138.111 60.2415H93.4366L82.9902 42.1462H127.665ZM81.6207 42.926L91.6072 60.2315H71.6243L81.6207 42.926ZM68.9153 60.2315H48.9323L58.9188 42.926L68.9153 60.2315ZM70.2748 62.5909L80.2612 79.8965H60.2783L70.2748 62.5909ZM71.6343 61.8111H92.5169L114.849 100.501H93.9563L71.6343 61.8111ZM94.3362 61.8111H138.101L127.655 79.9065H104.773L94.3362 61.8111ZM82.9902 40.5666L93.9764 21.5415H114.869L103.883 40.5666H82.9902ZM58.9188 39.7868L37.0365 1.8765H57.9291L69.3751 21.6914L58.9188 39.7868ZM46.2033 60.2315H24.231L13.7847 42.1362H35.7569L46.2033 60.2315ZM57.5593 81.4761L35.677 119.386L25.2306 101.291L36.6666 81.4761H57.5593ZM81.6207 82.2559L92.6068 101.281L82.1606 119.376L71.1745 100.341L81.6207 82.2559Z" fill="white"/>
</g>
<defs>
<clipPath id="clip0_5_114">
<rect width="139.891" height="142" fill="white" transform="translate(0.359375 0.3125)"/>
</clipPath>
</defs>
</svg>
